<?xml version="1.0" encoding="UTF-8"?>
<svg version="1.1" xmlns="http://www.w3.org/2000/svg" width="600" height="600">
<path d="M0 0 C22.11 0 44.22 0 67 0 C67 0.66 67 1.32 67 2 C67.969375 2.185625 68.93875 2.37125 69.9375 2.5625 C77.03047658 4.64444657 82.40845867 9.57528618 86.375 15.6875 C91.32717259 24.91779946 92.26630473 33.79722378 92.375 44.125 C92.38901855 45.04313477 92.40303711 45.96126953 92.41748047 46.90722656 C92.35783623 55.44399903 90.59369776 63.15218245 86 70.4375 C85.505 71.24058594 85.01 72.04367187 84.5 72.87109375 C83.13010396 74.81534725 81.73742027 76.38597606 80 78 C79.67 78.33 79.34 78.66 79 79 C79.86625 79.61875 80.7325 80.2375 81.625 80.875 C90.03678313 87.97430633 93.36628083 98.64462193 94.28491211 109.30688477 C94.40025494 112.70987036 94.40985967 116.09537238 94.375 119.5 C94.38660156 120.63308594 94.39820313 121.76617187 94.41015625 122.93359375 C94.37758711 132.41121345 93.64344921 144.54162103 87 152 C75.97245236 161.76177696 63.97914298 166.91009724 49.21875 166.875 C47.96163208 166.89344971 46.70451416 166.91189941 45.40930176 166.9309082 C42.10992602 166.97256984 38.8117952 166.98820222 35.51220703 166.99212646 C32.81572876 167.00267747 30.1200419 167.04291508 27.42388153 167.08398438 C24.18894575 167.13132364 20.95390335 167.15954691 17.71875 167.1875 C16.51665894 167.20087402 15.31456787 167.21424805 14.0760498 167.22802734 C12.95718384 167.22883301 11.83831787 167.22963867 10.68554688 167.23046875 C9.70549683 167.23457764 8.72544678 167.23868652 7.71569824 167.24291992 C5 167 5 167 0 165 C0 110.55 0 56.1 0 0 Z M31 29 C31 41.21 31 53.42 31 66 C33.97 66.061875 36.94 66.12375 40 66.1875 C40.91910156 66.21481201 41.83820313 66.24212402 42.78515625 66.27026367 C48.24594243 66.32470762 53.27716005 65.97426974 58 63 C61.50542949 58.33764022 61.45872575 53.66747384 61.375 48.0625 C61.38660156 47.28970703 61.39820312 46.51691406 61.41015625 45.72070312 C61.38334032 40.43349575 60.71905507 36.58338608 58 32 C52.89343359 28.07860243 47.26523576 28.6515147 41.125 28.8125 C37.78375 28.874375 34.4425 28.93625 31 29 Z M31 96 C30.67 109.53 30.34 123.06 30 137 C33.691875 137.04125 37.38375 137.0825 41.1875 137.125 C42.3427417 137.14320801 43.4979834 137.16141602 44.68823242 137.18017578 C46.0703894 137.18766846 46.0703894 137.18766846 47.48046875 137.1953125 C48.88655396 137.21102295 48.88655396 137.21102295 50.32104492 137.22705078 C53.9299607 136.92118259 56.76028824 135.84123298 59.75 133.8125 C61.63479922 131.07954113 61.63914019 128.24773827 62 125 C62.495 124.505 62.495 124.505 63 124 C63.12719929 121.62758528 63.17587674 119.25079379 63.1875 116.875 C63.20167969 115.57304687 63.21585938 114.27109375 63.23046875 112.9296875 C62.90723412 107.4182631 62.16653407 103.37591198 58.5625 99.125 C54.96767846 96.14392848 52.41186719 95.87623198 47.89453125 95.90234375 C47.00870361 95.90484131 46.12287598 95.90733887 45.21020508 95.90991211 C43.52834106 95.92356812 43.52834106 95.92356812 41.8125 95.9375 C38.244375 95.958125 34.67625 95.97875 31 96 Z " fill="#FBFBFB" transform="translate(47,211)"/>
<path d="M0 0 C21.78 0.495 21.78 0.495 44 1 C44.78246094 4.94710937 45.56492187 8.89421875 46.37109375 12.9609375 C46.99586823 16.10409722 47.62122276 19.24714028 48.24697113 22.3901062 C48.90777286 25.70996923 49.56754611 29.03002913 50.22485352 32.35058594 C50.97923317 36.15874563 51.73729148 39.96615692 52.49609375 43.7734375 C52.73154404 44.96617279 52.96699432 46.15890808 53.20957947 47.38778687 C53.42973221 48.48877716 53.64988495 49.58976746 53.87670898 50.72412109 C54.06990219 51.69674896 54.2630954 52.66937683 54.46214294 53.67147827 C54.90574743 56.00686154 54.90574743 56.00686154 56 58 C56.24045477 59.94643991 56.47922659 61.89312023 56.70507812 63.84130859 C57.14513897 67.06235001 57.95195944 70.16285632 58.75 73.3125 C60.95843062 82.29524496 62.61221033 91.36823962 64.24902344 100.4699707 C65.21235208 105.81394656 66.2086381 111.13281165 67.41943359 116.42626953 C68.19400707 119.86005995 68.92511505 123.30285651 69.65625 126.74609375 C69.8052475 127.4476358 69.954245 128.14917786 70.10775757 128.87197876 C70.41594333 130.32419832 70.72393392 131.77645932 71.03173828 133.22875977 C71.49827408 135.42935901 71.9658932 137.62972617 72.43359375 139.83007812 C74.00042372 147.21136826 75.54255298 154.59620365 77 162 C77.495 164.475 77.495 164.475 78 167 C67.44 167 56.88 167 46 167 C42.62187711 156.86563133 42.62187711 156.86563133 41.61328125 151.9765625 C41.39736328 150.93628906 41.18144531 149.89601563 40.95898438 148.82421875 C40.74564453 147.76847656 40.53230469 146.71273437 40.3125 145.625 C39.97508789 144.00658203 39.97508789 144.00658203 39.63085938 142.35546875 C38 134.41432371 38 134.41432371 38 131 C27.44 131 16.88 131 6 131 C6.33 131.99 6.66 132.98 7 134 C6.34 134 5.68 134 5 134 C4.23581011 140.65936905 3.58660246 147.32271667 3 154 C2.34 154 1.68 154 1 154 C0.86722656 154.85464844 0.73445313 155.70929688 0.59765625 156.58984375 C0.42105469 157.69457031 0.24445313 158.79929687 0.0625 159.9375 C-0.11152344 161.03964844 -0.28554688 162.14179688 -0.46484375 163.27734375 C-1 166 -1 166 -2 167 C-4.21855264 167.08783542 -6.43988496 167.10694609 -8.66015625 167.09765625 C-9.65685585 167.09553383 -9.65685585 167.09553383 -10.6736908 167.09336853 C-12.80333899 167.08775518 -14.93288339 167.07520054 -17.0625 167.0625 C-18.50325369 167.05748671 -19.94400903 167.05292351 -21.38476562 167.04882812 C-24.92321102 167.03778145 -28.46159539 167.02050792 -32 167 C-33.22719658 163.31841025 -32.66690063 161.49321587 -31.85546875 157.71484375 C-31.59056641 156.46123047 -31.32566406 155.20761719 -31.05273438 153.91601562 C-30.7645666 152.58979078 -30.47615362 151.26361919 -30.1875 149.9375 C-29.63911688 147.36332513 -29.090936 144.78910717 -28.54296875 142.21484375 C-28.29571045 141.07136475 -28.04845215 139.92788574 -27.79370117 138.74975586 C-27.21245234 136.00370822 -26.64811537 133.25737771 -26.10058594 130.50463867 C-24.8612271 124.2760425 -23.57356781 118.05749787 -22.28749275 111.83842087 C-21.68036376 108.90174594 -21.074361 105.96483892 -20.46827602 103.02794838 C-19.34574494 97.5885901 -18.22278587 92.14932114 -17.09790039 86.71044922 C-16.30976719 82.89956939 -15.52309013 79.08839132 -14.73730278 75.27702713 C-14.44166195 73.84435981 -14.14551618 72.41179657 -13.84880257 70.97935104 C-12.02695673 62.18265634 -10.29868058 53.37544024 -8.68113708 44.53872681 C-8.05256639 41.27309937 -7.33837154 38.04586528 -6.5625 34.8125 C-5.17118058 28.9454017 -4.00376099 23.0470315 -2.875 17.125 C-2.70427979 16.23272705 -2.53355957 15.3404541 -2.35766602 14.42114258 C-1.45139963 9.6155399 -0.69285906 4.85001341 0 0 Z M22 42 C21.87625 43.010625 21.7525 44.02125 21.625 45.0625 C21 49 21 49 20.08251953 52.12207031 C18.74870644 56.6811925 17.91349825 61.31640687 17.0546875 65.984375 C16.87994904 66.92178528 16.70521057 67.85919556 16.525177 68.82501221 C16.15886707 70.79465919 15.79422001 72.76461607 15.43115234 74.73486328 C14.87405858 77.75510384 14.31045033 80.77407782 13.74609375 83.79296875 C13.39023764 85.71086567 13.03475573 87.62883206 12.6796875 89.546875 C12.51097137 90.45000427 12.34225525 91.35313354 12.16842651 92.28363037 C11.93786057 93.54073822 11.93786057 93.54073822 11.70263672 94.82324219 C11.56654999 95.5593573 11.43046326 96.29547241 11.29025269 97.05389404 C10.92624314 99.16659137 10.92624314 99.16659137 11 102 C17.93 102 24.86 102 32 102 C33.25614976 98.23155072 32.545475 95.38609834 31.8203125 91.59375 C31.68809296 90.87264038 31.55587341 90.15153076 31.41964722 89.40856934 C31.13888106 87.88485181 30.85454035 86.36178925 30.56689453 84.83935547 C30.12691175 82.51012066 29.69724646 80.17917174 29.26953125 77.84765625 C28.99539204 76.36707621 28.72067183 74.88660361 28.4453125 73.40625 C28.31609406 72.7093103 28.18687561 72.01237061 28.05374146 71.29431152 C27.51431967 68.44671445 26.9179948 65.75398439 26 63 C25.721474 61.37552729 25.47363962 59.74567556 25.24609375 58.11328125 C25.04790039 56.7065918 25.04790039 56.7065918 24.84570312 55.27148438 C24.71099609 54.29501953 24.57628906 53.31855469 24.4375 52.3125 C24.22963867 50.83040039 24.22963867 50.83040039 24.01757812 49.31835938 C23.67586666 46.87924653 23.3367752 44.43979848 23 42 C22.67 42 22.34 42 22 42 Z " fill="#FAFAFA" transform="translate(400,210)"/>
<path d="M0 0 C25.74 0 51.48 0 78 0 C78 9.57 78 19.14 78 29 C62.49 29 46.98 29 31 29 C31 40.88 31 52.76 31 65 C34.16461615 66.58230808 37.59079367 66.24157813 41.0703125 66.31640625 C41.86654022 66.33718735 42.66276794 66.35796844 43.48312378 66.37937927 C46.03032685 66.44484149 48.57763425 66.50374415 51.125 66.5625 C52.85027127 66.6056884 54.57553193 66.64930279 56.30078125 66.69335938 C60.53374685 66.80051945 64.76681753 66.90179623 69 67 C69.02465881 70.96930989 69.04284023 74.93859034 69.05493164 78.90795898 C69.05997057 80.25920386 69.06680177 81.61044326 69.07543945 82.96166992 C69.08752419 84.90020434 69.09269828 86.838778 69.09765625 88.77734375 C69.10289307 89.94515381 69.10812988 91.11296387 69.11352539 92.31616211 C69 95 69 95 68 96 C65.26105915 96.08858646 62.5474673 96.11523479 59.80859375 96.09765625 C58.98875504 96.0962413 58.16891632 96.09482635 57.32423401 96.09336853 C54.69528618 96.08775289 52.06642227 96.07519779 49.4375 96.0625 C47.65950643 96.05748701 45.88151154 96.05292376 44.10351562 96.04882812 C39.73564455 96.03777839 35.36783652 96.02050331 31 96 C31.0714624 96.61786377 31.1429248 97.23572754 31.21655273 97.87231445 C32.0637294 105.98967271 32.11500992 114.03266354 32.0625 122.1875 C32.041875 126.745625 32.02125 131.30375 32 136 C47.18 136.33 62.36 136.66 78 137 C79.02941422 140.08824265 79.12907717 142.23705582 79.1328125 145.47265625 C79.13410156 146.53677734 79.13539063 147.60089844 79.13671875 148.69726562 C79.13285156 149.80779297 79.12898438 150.91832031 79.125 152.0625 C79.12886719 153.17689453 79.13273437 154.29128906 79.13671875 155.43945312 C79.13542969 156.50228516 79.13414062 157.56511719 79.1328125 158.66015625 C79.13168457 159.63605713 79.13055664 160.61195801 79.12939453 161.61743164 C79 164 79 164 78 166 C52.26 166 26.52 166 0 166 C0 111.22 0 56.44 0 0 Z " fill="#FAFAFA" transform="translate(152,211)"/>
<path d="M0 0 C10.23 0 20.46 0 31 0 C31 45.21 31 90.42 31 137 C45.52 137 60.04 137 75 137 C78.97135435 140.97135435 77.12013792 153.9773753 77.1328125 159.25 C77 162 77 162 76 165 C72.54953041 167.49719719 69.18568165 167.21473303 65.04418945 167.15112305 C64.35270813 167.14326782 63.66122681 167.1354126 62.9487915 167.12731934 C60.67002332 167.09880926 58.39180234 167.05554213 56.11328125 167.01171875 C54.52956738 166.98807978 52.94584189 166.96520729 51.36210632 166.94306946 C48.04750049 166.89458767 44.73310602 166.83922879 41.41870117 166.77856445 C37.161464 166.70085606 32.90415846 166.63656598 28.6466341 166.57690716 C25.37903583 166.53028966 22.11153672 166.47850557 18.84404564 166.42493629 C17.27350906 166.39945749 15.70295279 166.37516426 14.13237953 166.3520565 C11.94400671 166.31871162 9.7558522 166.27887254 7.56762695 166.23706055 C6.32060501 166.21548386 5.07358307 166.19390717 3.78877258 166.17167664 C1 166 1 166 0 165 C-0.09690407 162.87373202 -0.12186822 160.74418181 -0.12025452 158.6157074 C-0.12110894 157.94106683 -0.12196337 157.26642627 -0.12284368 156.57134205 C-0.12450039 154.29419838 -0.11897404 152.0171272 -0.11352539 149.73999023 C-0.11324353 148.11424766 -0.11340122 146.48850495 -0.1139679 144.86276245 C-0.11425593 140.43526587 -0.10835827 136.00779613 -0.10139394 131.58030581 C-0.09516136 126.95849158 -0.09455668 122.3366768 -0.09336853 117.71485901 C-0.09025493 108.95651763 -0.08204115 100.19818867 -0.07201904 91.43985277 C-0.0608588 81.47145987 -0.05534768 71.50306639 -0.05032361 61.5346688 C-0.03985856 41.02310406 -0.02151273 20.51155634 0 0 Z " fill="#FAFAFA" transform="translate(486,211)"/>
<path d="M0 0 C1.20398438 0.04382813 2.40796875 0.08765625 3.6484375 0.1328125 C5.535625 0.21015625 5.535625 0.21015625 7.4609375 0.2890625 C9.35972656 0.35480469 9.35972656 0.35480469 11.296875 0.421875 C20.70724051 0.78536551 20.70724051 0.78536551 21.8359375 1.9140625 C21.93225795 3.6729968 21.9578126 5.43583409 21.95619202 7.19740295 C21.95756668 8.34310257 21.95894135 9.48880219 21.96035767 10.66921997 C21.95496475 12.57137772 21.95496475 12.57137772 21.94946289 14.51196289 C21.94918102 15.85199481 21.94933875 17.19202689 21.9499054 18.53205872 C21.95019337 22.18065688 21.9442967 25.82922245 21.93733144 29.47781301 C21.93109784 33.28683766 21.9304941 37.095863 21.92930603 40.90489197 C21.92619273 48.12264004 21.91797936 55.34037304 21.90795654 62.55811447 C21.89679536 70.77321507 21.89128494 78.98831638 21.88626111 87.20342267 C21.87579675 104.1069795 21.85745129 121.01051557 21.8359375 137.9140625 C35.6959375 137.9140625 49.5559375 137.9140625 63.8359375 137.9140625 C63.8359375 147.1540625 63.8359375 156.3940625 63.8359375 165.9140625 C59.59001301 168.03702474 57.79357649 168.13959646 53.15551758 168.06518555 C52.49329697 168.05733032 51.83107635 168.0494751 51.14878845 168.04138184 C48.96740477 168.01288177 46.786594 167.96961254 44.60546875 167.92578125 C43.08901613 167.90214105 41.57255136 167.87926865 40.05607605 167.85713196 C36.88269923 167.80865737 33.70954356 167.75330008 30.53637695 167.69262695 C26.46074761 167.61491044 22.38504687 167.55062345 18.30911732 167.49096966 C15.18048543 167.44435109 12.05195708 167.39256751 8.92343712 167.33899879 C7.41988742 167.31352206 5.91631721 167.28922863 4.41272926 167.266119 C2.31775015 167.23277143 0.22299887 167.19293317 -1.87182617 167.15112305 C-3.06555344 167.12954636 -4.2592807 167.10796967 -5.48918152 167.08573914 C-8.1640625 166.9140625 -8.1640625 166.9140625 -9.1640625 165.9140625 C-9.27458264 164.25055299 -9.31536398 162.58237367 -9.32901001 160.91525269 C-9.34024399 159.83118134 -9.35147797 158.74710999 -9.36305237 157.63018799 C-9.37037888 156.42948669 -9.37770538 155.2287854 -9.38525391 153.99169922 C-9.3967598 152.73436981 -9.40826569 151.47704041 -9.42012024 150.18161011 C-9.45158103 146.71278319 -9.47665751 143.24393661 -9.5003171 139.77504873 C-9.52077341 136.86012803 -9.54431605 133.94523559 -9.56785429 131.03033841 C-9.62363009 124.117097 -9.67427095 117.20383083 -9.72167969 110.29052734 C-9.77012234 103.23774088 -9.82647041 96.18505172 -9.88710082 89.13236034 C-9.93924669 83.03512214 -9.98638205 76.93785815 -10.02978837 70.8405515 C-10.05559833 67.21946697 -10.08299592 63.5984168 -10.1151619 59.97738266 C-10.28748569 40.2615459 -9.95067285 20.61343146 -9.1640625 0.9140625 C-5.82324797 -0.19954234 -3.51099505 -0.12905445 0 0 Z " fill="#FAFAFA" transform="translate(251.1640625,210.0859375)"/>
<path d="M0 0 C10.23 0 20.46 0 31 0 C31.7595921 4.55755258 32.11440109 8.2503345 32.08229065 12.79574585 C32.07906152 13.45424078 32.07583239 14.1127357 32.07250541 14.79118502 C32.06050226 16.98373529 32.0411151 19.17615589 32.02172852 21.36865234 C32.01157808 22.94586918 32.00188525 24.52308902 31.99261475 26.10031128 C31.96621028 30.37258847 31.93341537 34.64479542 31.89946485 38.91701841 C31.86504584 43.38529745 31.83651541 47.85361402 31.80735779 52.32192993 C31.7512778 60.7790958 31.68990933 69.23621468 31.62663645 77.69332945 C31.55484694 87.32324575 31.48895972 96.9531996 31.42356598 106.58316112 C31.28894046 126.38882287 31.14691027 146.19442581 31 166 C26.74585377 166.02465622 22.49174502 166.04283899 18.23754883 166.05493164 C16.78929927 166.05997101 15.34105483 166.06680253 13.89282227 166.07543945 C11.81525412 166.08752247 9.73775303 166.09323211 7.66015625 166.09765625 C6.40855713 166.10289307 5.15695801 166.10812988 3.86743164 166.11352539 C1 166 1 166 0 165 C-0.09690407 162.87373202 -0.12186822 160.74418181 -0.12025452 158.6157074 C-0.12110894 157.94106683 -0.12196337 157.26642627 -0.12284368 156.57134205 C-0.12450039 154.29419838 -0.11897404 152.0171272 -0.11352539 149.73999023 C-0.11324353 148.11424766 -0.11340122 146.48850495 -0.1139679 144.86276245 C-0.11425593 140.43526587 -0.10835827 136.00779613 -0.10139394 131.58030581 C-0.09516136 126.95849158 -0.09455668 122.3366768 -0.09336853 117.71485901 C-0.09025493 108.95651763 -0.08204115 100.19818867 -0.07201904 91.43985277 C-0.0608588 81.47145987 -0.05534768 71.50306639 -0.05032361 61.5346688 C-0.03985856 41.02310406 -0.02151273 20.51155634 0 0 Z " fill="#F9F9F9" transform="translate(327,211)"/>
<path d="M0 0 C4.15865893 5.06271521 4.11758527 8.70102151 3.87890625 15.171875 C3.85529526 15.8542926 3.83168427 16.53671021 3.80735779 17.23980713 C3.7310504 19.41010058 3.64688594 21.58000714 3.5625 23.75 C3.50924627 25.22524176 3.45650611 26.70050216 3.40429688 28.17578125 C3.2754805 31.78408912 3.13961806 35.3920921 3 39 C2.01 38.34 1.02 37.68 0 37 C-0.26667539 34.16272675 -0.34791234 31.54616955 -0.29296875 28.7109375 C-0.28872391 27.89251373 -0.28447906 27.07408997 -0.28010559 26.23086548 C-0.26328679 23.61191164 -0.22562974 20.99372198 -0.1875 18.375 C-0.17245726 16.6015736 -0.15876814 14.82813516 -0.14648438 13.0546875 C-0.11337292 8.7028297 -0.06156952 4.35154449 0 0 Z " fill="#F3F3F3" transform="translate(180,310)"/>
<path d="M0 0 C1 4 1 4 1 4 Z " fill="#F9F9F9" transform="translate(518,240)"/>
<path d="M0 0 C2 1 2 1 2 1 Z " fill="#F3F3F3" transform="translate(483,380)"/>
<path d="" fill="#F3F3F3" transform="translate(0,0)"/>
<path d="M0 0 C2 1 2 1 2 1 Z " fill="#F5F5F5" transform="translate(272,379)"/>
<path d="M0 0 C2 1 2 1 2 1 Z " fill="#F5F5F5" transform="translate(44,375)"/>
<path d="" fill="#EEEEEE" transform="translate(0,0)"/>
<path d="" fill="#F3F3F3" transform="translate(0,0)"/>
<path d="" fill="#ECECEC" transform="translate(0,0)"/>
<path d="" fill="#F1F1F1" transform="translate(0,0)"/>
<path d="M0 0 C2 1 2 1 2 1 Z " fill="#ECECEC" transform="translate(478,357)"/>
<path d="" fill="#EFEFEF" transform="translate(0,0)"/>
<path d="" fill="#F0F0F0" transform="translate(0,0)"/>
<path d="" fill="#EDEDED" transform="translate(0,0)"/>
<path d="M0 0 C2 1 2 1 2 1 Z " fill="#FAFAFA" transform="translate(222,283)"/>
<path d="" fill="#EDEDED" transform="translate(0,0)"/>
<path d="" fill="#EDEDED" transform="translate(0,0)"/>
<path d="" fill="#F7F7F7" transform="translate(0,0)"/>
<path d="M0 0 C2 1 2 1 2 1 Z " fill="#ECECEC" transform="translate(386,261)"/>
<path d="M0 0 C2 1 2 1 2 1 Z " fill="#EDEDED" transform="translate(452,243)"/>
<path d="" fill="#FBFBFB" transform="translate(0,0)"/>
<path d="" fill="#EBEBEB" transform="translate(0,0)"/>
<path d="" fill="#F0F0F0" transform="translate(0,0)"/>
<path d="" fill="#F0F0F0" transform="translate(0,0)"/>
<path d="" fill="#E3E3E3" transform="translate(0,0)"/>
<path d="" fill="#EDEDED" transform="translate(0,0)"/>
<path d="" fill="#F2F2F2" transform="translate(0,0)"/>
<path d="" fill="#F3F3F3" transform="translate(0,0)"/>
<path d="" fill="#E2E2E2" transform="translate(0,0)"/>
<path d="" fill="#EFEFEF" transform="translate(0,0)"/>
<path d="" fill="#F0F0F0" transform="translate(0,0)"/>
<path d="" fill="#EBEBEB" transform="translate(0,0)"/>
<path d="" fill="#EBEBEB" transform="translate(0,0)"/>
<path d="" fill="#E1E1E1" transform="translate(0,0)"/>
<path d="" fill="#E2E2E2" transform="translate(0,0)"/>
<path d="" fill="#EDEDED" transform="translate(0,0)"/>
<path d="" fill="#E3E3E3" transform="translate(0,0)"/>
<path d="" fill="#F6F6F6" transform="translate(0,0)"/>
<path d="" fill="#F6F6F6" transform="translate(0,0)"/>
<path d="" fill="#F5F5F5" transform="translate(0,0)"/>
<path d="" fill="#F5F5F5" transform="translate(0,0)"/>
<path d="" fill="#F5F5F5" transform="translate(0,0)"/>
<path d="" fill="#F5F5F5" transform="translate(0,0)"/>
<path d="" fill="#F5F5F5" transform="translate(0,0)"/>
<path d="" fill="#F6F6F6" transform="translate(0,0)"/>
<path d="" fill="#F7F7F7" transform="translate(0,0)"/>
<path d="" fill="#F7F7F7" transform="translate(0,0)"/>
<path d="" fill="#FEFEFE" transform="translate(0,0)"/>
<path d="" fill="#FEFEFE" transform="translate(0,0)"/>
<path d="" fill="#FEFEFE" transform="translate(0,0)"/>
<path d="" fill="#FAFAFA" transform="translate(0,0)"/>
<path d="" fill="#FEFEFE" transform="translate(0,0)"/>
<path d="" fill="#F8F8F8" transform="translate(0,0)"/>
<path d="" fill="#F9F9F9" transform="translate(0,0)"/>
<path d="" fill="#EEEEEE" transform="translate(0,0)"/>
<path d="" fill="#F4F4F4" transform="translate(0,0)"/>
<path d="" fill="#FEFEFE" transform="translate(0,0)"/>
<path d="" fill="#F1F1F1" transform="translate(0,0)"/>
<path d="" fill="#E2E2E2" transform="translate(0,0)"/>
<path d="" fill="#F5F5F5" transform="translate(0,0)"/>
<path d="" fill="#EDEDED" transform="translate(0,0)"/>
<path d="" fill="#EDEDED" transform="translate(0,0)"/>
<path d="" fill="#FBFBFB" transform="translate(0,0)"/>
<path d="" fill="#F9F9F9" transform="translate(0,0)"/>
<path d="" fill="#ECECEC" transform="translate(0,0)"/>
<path d="" fill="#F0F0F0" transform="translate(0,0)"/>
<path d="" fill="#ECECEC" transform="translate(0,0)"/>
<path d="" fill="#FAFAFA" transform="translate(0,0)"/>
<path d="" fill="#F3F3F3" transform="translate(0,0)"/>
<path d="" fill="#EBEBEB" transform="translate(0,0)"/>
<path d="" fill="#E3E3E3" transform="translate(0,0)"/>
<path d="" fill="#ECECEC" transform="translate(0,0)"/>
<path d="" fill="#EFEFEF" transform="translate(0,0)"/>
<path d="" fill="#F5F5F5" transform="translate(0,0)"/>
<path d="" fill="#E2E2E2" transform="translate(0,0)"/>
<path d="" fill="#E9E9E9" transform="translate(0,0)"/>
<path d="" fill="#F6F6F6" transform="translate(0,0)"/>
<path d="" fill="#F5F5F5" transform="translate(0,0)"/>
<path d="" fill="#EBEBEB" transform="translate(0,0)"/>
<path d="" fill="#E2E2E2" transform="translate(0,0)"/>
<path d="" fill="#E3E3E3" transform="translate(0,0)"/>
<path d="" fill="#E2E2E2" transform="translate(0,0)"/>
<path d="" fill="#FCFCFC" transform="translate(0,0)"/>
<path d="" fill="#F6F6F6" transform="translate(0,0)"/>
<path d="" fill="#FDFDFD" transform="translate(0,0)"/>
<path d="" fill="#F4F4F4" transform="translate(0,0)"/>
<path d="" fill="#FBFBFB" transform="translate(0,0)"/>
<path d="" fill="#F5F5F5" transform="translate(0,0)"/>
<path d="" fill="#E3E3E3" transform="translate(0,0)"/>
<path d="" fill="#FAFAFA" transform="translate(0,0)"/>
<path d="" fill="#E4E4E4" transform="translate(0,0)"/>
<path d="" fill="#E2E2E2" transform="translate(0,0)"/>
<path d="" fill="#EDEDED" transform="translate(0,0)"/>
<path d="" fill="#F3F3F3" transform="translate(0,0)"/>
<path d="" fill="#F5F5F5" transform="translate(0,0)"/>
<path d="" fill="#F0F0F0" transform="translate(0,0)"/>
<path d="" fill="#E2E2E2" transform="translate(0,0)"/>
<path d="" fill="#F4F4F4" transform="translate(0,0)"/>
<path d="" fill="#F5F5F5" transform="translate(0,0)"/>
<path d="" fill="#FDFDFD" transform="translate(0,0)"/>
<path d="" fill="#FDFDFD" transform="translate(0,0)"/>
<path d="" fill="#F8F8F8" transform="translate(0,0)"/>
<path d="" fill="#F7F7F7" transform="translate(0,0)"/>
<path d="" fill="#FCFCFC" transform="translate(0,0)"/>
<path d="" fill="#F2F2F2" transform="translate(0,0)"/>
<path d="" fill="#EDEDED" transform="translate(0,0)"/>
<path d="" fill="#E2E2E2" transform="translate(0,0)"/>
<path d="" fill="#EDEDED" transform="translate(0,0)"/>
<path d="" fill="#EDEDED" transform="translate(0,0)"/>
<path d="" fill="#EDEDED" transform="translate(0,0)"/>
<path d="" fill="#F8F8F8" transform="translate(0,0)"/>
<path d="" fill="#F9F9F9" transform="translate(0,0)"/>
<path d="" fill="#EDEDED" transform="translate(0,0)"/>
<path d="" fill="#ECECEC" transform="translate(0,0)"/>
<path d="" fill="#E3E3E3" transform="translate(0,0)"/>
<path d="" fill="#E3E3E3" transform="translate(0,0)"/>
<path d="" fill="#F5F5F5" transform="translate(0,0)"/>
<path d="" fill="#EEEEEE" transform="translate(0,0)"/>
<path d="" fill="#FBFBFB" transform="translate(0,0)"/>
<path d="" fill="#FBFBFB" transform="translate(0,0)"/>
<path d="" fill="#F3F3F3" transform="translate(0,0)"/>
<path d="" fill="#EDEDED" transform="translate(0,0)"/>
<path d="" fill="#F3F3F3" transform="translate(0,0)"/>
<path d="" fill="#F6F6F6" transform="translate(0,0)"/>
<path d="" fill="#E4E4E4" transform="translate(0,0)"/>
<path d="" fill="#ECECEC" transform="translate(0,0)"/>
<path d="" fill="#FEFEFE" transform="translate(0,0)"/>
<path d="" fill="#FBFBFB" transform="translate(0,0)"/>
<path d="" fill="#F1F1F1" transform="translate(0,0)"/>
<path d="" fill="#EDEDED" transform="translate(0,0)"/>
<path d="" fill="#ECECEC" transform="translate(0,0)"/>
<path d="" fill="#F5F5F5" transform="translate(0,0)"/>
<path d="" fill="#E3E3E3" transform="translate(0,0)"/>
<path d="" fill="#E4E4E4" transform="translate(0,0)"/>
<path d="" fill="#F6F6F6" transform="translate(0,0)"/>
<path d="" fill="#FCFCFC" transform="translate(0,0)"/>
<path d="" fill="#EDEDED" transform="translate(0,0)"/>
<path d="" fill="#FAFAFA" transform="translate(0,0)"/>
<path d="" fill="#EDEDED" transform="translate(0,0)"/>
<path d="" fill="#E3E3E3" transform="translate(0,0)"/>
<path d="" fill="#F7F7F7" transform="translate(0,0)"/>
<path d="" fill="#EEEEEE" transform="translate(0,0)"/>
<path d="" fill="#F8F8F8" transform="translate(0,0)"/>
<path d="" fill="#E3E3E3" transform="translate(0,0)"/>
<path d="" fill="#F0F0F0" transform="translate(0,0)"/>
<path d="" fill="#FCFCFC" transform="translate(0,0)"/>
<path d="" fill="#E3E3E3" transform="translate(0,0)"/>
<path d="" fill="#E3E3E3" transform="translate(0,0)"/>
<path d="" fill="#EDEDED" transform="translate(0,0)"/>
<path d="" fill="#EDEDED" transform="translate(0,0)"/>
<path d="" fill="#F0F0F0" transform="translate(0,0)"/>
<path d="" fill="#F0F0F0" transform="translate(0,0)"/>
<path d="" fill="#ECECEC" transform="translate(0,0)"/>
<path d="" fill="#FAFAFA" transform="translate(0,0)"/>
<path d="" fill="#ECECEC" transform="translate(0,0)"/>
<path d="" fill="#E2E2E2" transform="translate(0,0)"/>
<path d="" fill="#E3E3E3" transform="translate(0,0)"/>
<path d="" fill="#FBFBFB" transform="translate(0,0)"/>
<path d="" fill="#FAFAFA" transform="translate(0,0)"/>
<path d="" fill="#E1E1E1" transform="translate(0,0)"/>
<path d="" fill="#FAFAFA" transform="translate(0,0)"/>
<path d="" fill="#F2F2F2" transform="translate(0,0)"/>
<path d="" fill="#F4F4F4" transform="translate(0,0)"/>
<path d="" fill="#F5F5F5" transform="translate(0,0)"/>
<path d="" fill="#EFEFEF" transform="translate(0,0)"/>
<path d="" fill="#E3E3E3" transform="translate(0,0)"/>
<path d="" fill="#EBEBEB" transform="translate(0,0)"/>
<path d="" fill="#E3E3E3" transform="translate(0,0)"/>
<path d="" fill="#F1F1F1" transform="translate(0,0)"/>
<path d="" fill="#F1F1F1" transform="translate(0,0)"/>
<path d="" fill="#F3F3F3" transform="translate(0,0)"/>
<path d="" fill="#F3F3F3" transform="translate(0,0)"/>
<path d="" fill="#F5F5F5" transform="translate(0,0)"/>
<path d="" fill="#F4F4F4" transform="translate(0,0)"/>
<path d="" fill="#F6F6F6" transform="translate(0,0)"/>
<path d="" fill="#F6F6F6" transform="translate(0,0)"/>
<path d="" fill="#F5F5F5" transform="translate(0,0)"/>
<path d="" fill="#E1E1E1" transform="translate(0,0)"/>
<path d="" fill="#E1E1E1" transform="translate(0,0)"/>
<path d="" fill="#E2E2E2" transform="translate(0,0)"/>
<path d="" fill="#E1E1E1" transform="translate(0,0)"/>
<path d="" fill="#E2E2E2" transform="translate(0,0)"/>
<path d="" fill="#E1E1E1" transform="translate(0,0)"/>
</svg>
